<svg width="443" height="234" viewBox="0 0 443 234" fill="none" xmlns="http://www.w3.org/2000/svg">
<path d="M362.139 0.193531L21.5037 48.1675C9.7942 49.8148 0.285303 61.4203 0.258135 74.0945L3.28032e-05 213.81C-0.0203434 226.477 9.45461 235.408 21.1573 233.76L361.793 185.787C369.971 184.636 377.428 178.503 380.96 170.022L411.844 95.8284C414.601 89.2055 414.615 81.9563 411.878 76.1093L381.259 10.5806C377.754 3.08641 370.31 -0.956811 362.139 0.193531Z" fill="url(#paint0_linear_1_362)"/>
<path d="M131.522 49.2432L111.906 52.0067L111.736 142.707L89.6892 55.1378L62.4734 58.97L62.1949 210.495L81.8104 207.732L82.0142 97.1151L109.026 203.899L131.236 200.768L131.522 49.2432Z" fill="white"/>
<path d="M212.959 37.7738L152.93 46.2278L152.645 197.753L212.68 189.299L212.721 167.653L174.699 173.01L174.787 126.466L205.005 122.212L205.046 100.566L174.828 104.82L174.903 64.7694L212.925 59.4193L212.959 37.7738Z" fill="white"/>
<path d="M331.032 21.145L312.021 23.8201L301.792 143.857L291.407 26.7266L267.397 30.1027L256.564 150.228L246.783 33.0092L225.565 35.9974L239.495 185.521L268.715 181.41L279.113 75.8509L289.131 178.531L316.544 174.671L331.032 21.145Z" fill="white"/>
<path d="M392.785 76.4904C385.477 77.5182 379.534 84.7606 379.52 92.6701C379.507 100.58 385.423 106.154 392.731 105.126C400.046 104.099 405.982 96.8562 405.996 88.9468C406.009 81.0305 400.094 75.4558 392.785 76.4904Z" fill="white"/>
<path d="M412.781 37.9847C410.628 38.291 408.489 38.8424 406.383 39.6319C404.148 40.476 402.838 43.1647 403.544 45.4109C404.067 47.0717 405.561 47.9906 407.198 47.7592C407.436 47.7252 407.68 47.6639 407.925 47.5823C408.849 47.2555 409.793 46.99 410.757 46.779C411.328 46.6565 411.891 46.5544 412.455 46.4727C424.233 44.8119 434.101 52.803 434.883 65.0075C435.698 77.7838 426.223 90.3491 413.712 93.065C413.148 93.1875 412.584 93.2896 412.027 93.3645C407.823 93.9567 403.856 93.3168 400.46 91.6968C399.448 91.2135 398.321 91.057 397.18 91.2203C396.433 91.3293 395.679 91.5675 394.952 91.9419C392.405 93.2624 391.828 96.9585 393.926 98.4832C398.036 101.465 402.946 103.098 408.156 103.221C409.65 103.255 411.158 103.166 412.659 102.955C416.388 102.431 420.103 101.158 423.608 99.1843C428.518 96.4139 432.838 92.3639 436.139 87.4494C439.44 82.5281 441.6 76.9194 442.401 71.1677C443.203 65.4159 442.619 59.7323 440.71 54.6953C438.802 49.6583 435.623 45.4313 431.52 42.45C427.411 39.4686 422.501 37.835 417.291 37.7192C415.79 37.6852 414.282 37.7737 412.781 37.9847Z" fill="url(#paint1_linear_1_362)"/>
<defs>
<linearGradient id="paint0_linear_1_362" x1="-24.3918" y1="-23.9276" x2="480.02" y2="-0.975817" gradientUnits="userSpaceOnUse">
<stop stop-color="#DA458F"/>
<stop offset="1" stop-color="#DA34DD"/>
</linearGradient>
<linearGradient id="paint1_linear_1_362" x1="389.693" y1="31.0116" x2="450.855" y2="32.2146" gradientUnits="userSpaceOnUse">
<stop stop-color="#DA458F"/>
<stop offset="1" stop-color="#DA34DD"/>
</linearGradient>
</defs>
</svg>
