<svg width="133" height="53" viewBox="0 0 133 53" fill="none" xmlns="http://www.w3.org/2000/svg">
<path d="M121.258 0.062019L16.7281 14.785C14.1471 15.1458 11.7902 17.0653 10.6492 19.7335L0.712367 42.8425C-1.51543 48.0224 1.75154 53.2568 6.77088 52.5489L121.197 36.4305C123.805 36.0629 126.196 34.1026 127.323 31.3935L132.125 19.8629C133.008 17.7528 133.008 15.4317 132.139 13.5666L127.378 3.38372C126.25 0.980934 123.866 -0.305546 121.258 0.062019Z" fill="url(#paint0_linear_1_345)"/>
<path d="M22.1142 20.9316C18.7725 21.4013 16.993 23.8109 16.9862 27.5274C16.9794 30.2297 17.9439 32.047 20.8102 34.3818C23.0516 36.1924 23.7987 37.3019 23.7987 39.2554C23.7987 41.0115 23.0787 41.7194 21.9852 41.876C20.8985 42.0326 20.2125 41.5221 20.2125 39.834V38.214L16.9658 38.67V40.0178C16.959 43.8023 18.6435 45.7218 22.0123 45.2521C25.388 44.7757 27.1947 42.3661 27.2015 38.5135C27.2083 35.5798 26.2778 33.7828 23.4115 31.448C21.1701 29.6375 20.3891 28.5348 20.3891 26.8126C20.3891 25.1858 21.0547 24.4575 22.1414 24.301C23.2349 24.1444 23.8598 24.7026 23.853 26.3906V27.609L27.0928 27.153V26.1728C27.0996 22.3883 25.4491 20.462 22.1142 20.9316Z" fill="white"/>
<path d="M40.4935 18.6786L37.0635 19.1619L37.0431 28.7798L33.3619 29.2971L33.3755 19.6792L29.9454 20.1625L29.8979 43.7887L33.3347 43.3054L33.3551 32.6733L37.0363 32.156L37.016 42.7881L40.4528 42.3048L40.4935 18.6786Z" fill="white"/>
<path d="M48.7525 38.0982C47.6589 38.2548 46.973 37.7102 46.9797 36.0153L47.0069 23.1234C47.0069 21.4353 47.6997 20.6933 48.7932 20.5436C49.8867 20.387 50.5727 20.9316 50.5659 22.6265L50.5388 35.5184C50.532 37.2065 49.846 37.9417 48.7525 38.0982ZM48.7932 17.1742C45.4244 17.6507 43.5769 20.0671 43.5701 23.8449L43.5498 36.2672C43.543 40.0518 45.3836 41.9508 48.7525 41.4744C52.1281 40.9979 53.9688 38.5815 53.9756 34.7969L53.996 22.3746C54.0028 18.5969 52.1621 16.6978 48.7932 17.1742Z" fill="white"/>
<path d="M60.5096 26.4859L60.5232 19.2299L62.1465 18.9985C63.24 18.842 63.8309 19.3048 63.8309 20.9861L63.8241 23.7905C63.8241 25.4785 63.2264 26.1048 62.1329 26.2613L60.5096 26.4859ZM62.1465 15.6223L57.0932 16.3371L57.0525 39.9633L60.4825 39.48L60.5028 29.8621L62.1261 29.6307C65.5561 29.1474 67.2474 26.8535 67.2542 23.0689L67.261 20.741C67.261 16.9633 65.5833 15.1391 62.1465 15.6223Z" fill="white"/>
<path d="M86.4213 12.2053L83.3649 12.6342L83.3377 26.7854L79.9009 13.1242L75.6559 13.7232L75.6151 37.3495L78.6715 36.9206L78.7055 19.6723L82.9166 36.3216L86.3805 35.8316L86.4213 12.2053Z" fill="white"/>
<path d="M94.6807 31.6318C93.5871 31.7884 92.9012 31.2438 92.908 29.5489L92.9351 16.6569C92.9351 14.9689 93.6279 14.2269 94.7214 14.0772C95.8149 13.9206 96.5009 14.4652 96.4941 16.16L96.467 29.052C96.467 30.7401 95.7742 31.4752 94.6807 31.6318ZM94.7214 10.701C91.3525 11.1775 89.5051 13.5939 89.4983 17.3716L89.4779 29.794C89.4711 33.5785 91.3118 35.4776 94.6807 35.0011C98.0563 34.5247 99.8969 32.1083 99.9037 28.3237L99.9241 15.9014C99.9309 12.1304 98.097 10.2246 94.7214 10.701Z" fill="white"/>
<path d="M118.656 7.66528L115.688 8.08732L114.099 26.7991L112.482 8.53657L108.733 9.06749L107.042 27.7929L105.521 9.51672L102.213 9.9796L104.386 33.2995L108.937 32.6597L110.56 16.1942L112.122 32.2105L116.395 31.6047L118.656 7.66528Z" fill="white"/>
<defs>
<linearGradient id="paint0_linear_1_345" x1="-7.82508" y1="-5.38097" x2="153.649" y2="5.10034" gradientUnits="userSpaceOnUse">
<stop stop-color="#DA458F"/>
<stop offset="1" stop-color="#DA34DD"/>
</linearGradient>
</defs>
</svg>
