<svg width="219" height="54" viewBox="0 0 219 54" fill="none" xmlns="http://www.w3.org/2000/svg">
<path d="M0.644531 8.05078H11.2969V54H21.5977V8.05078H32.25V0H0.644531V8.05078ZM62.8359 22.957H51.5508V0H41.25V54H51.5508V31.043H62.8359V54H73.1367V0H62.8359V22.957ZM108.434 0H83.5781V54H108.434V45.9492H93.8789V31.043H106.113V22.957H93.8789V8.05078H108.434V0ZM146.93 0V54H173.859L178.676 49.1836V4.81641L173.859 0H146.93ZM165.949 45.9492H157.23V8.05078H165.949L168.445 10.582V43.418L165.949 45.9492ZM207.891 43.418L205.395 45.9492H202.195L199.77 43.418V33.7852H189.469V49.1836L194.285 54H213.305L218.121 49.1836V0H207.891V43.418Z" fill="white"/>
</svg>
