<svg width="637" height="268" viewBox="0 0 637 268" fill="none" xmlns="http://www.w3.org/2000/svg">
<path d="M32.8774 201.863L44.9347 107.524L56.8931 198.479L32.8774 201.863ZM64.1654 74.6498L28.0018 79.7423L0 267.372L24.7487 263.889L29.4266 227.284L60.2451 222.943L64.7913 258.252L91.4836 254.497L64.1654 74.6498Z" fill="white"/>
<path d="M137.052 143.105L137.151 90.6123L149.283 88.9038C158.746 87.5749 162.863 92.7665 162.839 105.89L162.814 120.061C162.789 134.761 156.711 140.34 146.762 141.744L137.052 143.105ZM150.057 62.5499L110.508 68.1211L110.171 251.855L136.863 248.1L137.011 169.36L146.227 168.064C158.367 166.356 162.962 171.217 162.929 188.278L162.863 221.87C162.839 236.825 163.811 239.582 165.252 244.097L192.43 240.267C189.77 233.821 189.539 227.293 189.556 218.37L189.613 186.082C189.655 165.349 185.306 152.316 171.972 149.733V149.205C183.873 142.28 189.482 129.421 189.515 110.52L189.539 99.2373C189.589 70.8861 177.721 58.6542 150.057 62.5499Z" fill="white"/>
<path d="M240.906 128.471L241.005 75.9783L253.145 74.2698C262.608 72.941 266.717 78.1325 266.693 91.2558L266.668 105.427C266.643 120.127 260.565 125.706 250.624 127.11L240.906 128.471ZM253.919 47.9242L214.362 53.4954L214.024 237.23L240.717 233.474L240.865 154.735L250.089 153.439C262.221 151.73 266.824 156.592 266.791 173.652L266.726 207.244C266.701 222.2 267.664 224.956 269.114 229.471L296.292 225.642C293.632 219.195 293.401 212.667 293.418 203.745L293.475 171.456C293.517 150.723 289.168 137.691 275.834 135.107V134.579C287.735 127.654 293.335 114.803 293.368 95.8943L293.393 84.6116C293.443 56.2604 281.583 44.0285 253.919 47.9242Z" fill="white"/>
<path d="M344.917 35.1067L318.224 38.8703L317.887 222.596L344.579 218.841L344.917 35.1067Z" fill="white"/>
<path d="M450.714 20.2086L426.204 23.6586L408.217 170.516L390.774 28.6521L363.843 32.4405L389.217 212.551L424.656 207.558L450.714 20.2086Z" fill="white"/>
<path d="M488.088 137.749L500.154 43.4097L512.112 134.365L488.088 137.749ZM519.376 10.5354L483.221 15.6279L455.219 203.258L479.968 199.775L484.646 163.17L515.464 158.829L520.01 194.138L546.703 190.382L519.376 10.5354Z" fill="white"/>
<path d="M592.419 0.251343L565.727 4.00679L565.381 187.741L636.003 177.795L636.053 151.549L592.123 157.731L592.419 0.251343Z" fill="white"/>
</svg>
