<svg width="637" height="268" viewBox="0 0 637 268" fill="none" xmlns="http://www.w3.org/2000/svg">
<g opacity="0.6">
<path d="M33.1287 201.612L45.186 107.273L57.1444 198.228L33.1287 201.612ZM64.4167 74.3984L28.2531 79.4909L0.251312 267.121L25 263.638L29.6779 227.033L60.4964 222.692L65.0426 258.001L91.7349 254.245L64.4167 74.3984Z" fill="#3A3841"/>
<path d="M137.304 142.854L137.403 90.3609L149.534 88.6524C158.997 87.3236 163.115 92.5151 163.09 105.638L163.065 119.81C163.041 134.51 156.963 140.089 147.014 141.492L137.304 142.854ZM150.308 62.2986L110.76 67.8698L110.422 251.604L137.114 247.849L137.263 169.109L146.478 167.813C158.618 166.105 163.214 170.966 163.181 188.026L163.115 221.619C163.09 236.574 164.062 239.331 165.503 243.846L192.681 240.016C190.021 233.57 189.791 227.041 189.807 218.119L189.865 185.831C189.906 165.098 185.557 152.065 172.224 149.482V148.954C184.124 142.029 189.733 129.17 189.766 110.269L189.791 98.986C189.84 70.6348 177.972 58.4028 150.308 62.2986Z" fill="#3A3841"/>
<path d="M241.157 128.22L241.256 75.7271L253.396 74.0186C262.859 72.6898 266.969 77.8813 266.944 91.0046L266.919 105.176C266.894 119.876 260.816 125.455 250.876 126.858L241.157 128.22ZM254.17 47.673L214.613 53.2442L214.276 236.978L240.968 233.223L241.116 154.483L250.34 153.187C262.472 151.479 267.076 156.34 267.043 173.401L266.977 206.993C266.952 221.949 267.916 224.705 269.365 229.22L296.543 225.39C293.883 218.944 293.653 212.416 293.669 203.493L293.727 171.205C293.768 150.472 289.419 137.44 276.086 134.856V134.328C287.986 127.403 293.587 114.552 293.62 95.6431L293.644 84.3604C293.694 56.0091 281.834 43.7772 254.17 47.673Z" fill="#3A3841"/>
<path d="M345.168 34.8553L318.476 38.619L318.138 222.345L344.83 218.59L345.168 34.8553Z" fill="#3A3841"/>
<path d="M450.966 19.9573L426.456 23.4073L408.469 170.264L391.025 28.4007L364.094 32.1891L389.469 212.3L424.907 207.307L450.966 19.9573Z" fill="#3A3841"/>
<path d="M488.34 137.497L500.405 43.1583L512.364 134.113L488.34 137.497ZM519.628 10.2841L483.472 15.3765L455.47 203.007L480.219 199.524L484.897 162.919L515.716 158.577L520.262 193.886L546.954 190.131L519.628 10.2841Z" fill="#3A3841"/>
<path d="M592.671 0L565.978 3.75545L565.633 187.49L636.255 177.544L636.304 151.297L592.374 157.479L592.671 0Z" fill="#3A3841"/>
</g>
</svg>
